<svg width="1270" height="1234" viewBox="0 0 1270 1234" fill="none" xmlns="http://www.w3.org/2000/svg">
<path d="M1269.74 618.421C1269.42 772.3 1209.83 920.501 1102.68 1033.89C995.525 1147.27 848.558 1217.64 690.672 1231.16C532.785 1244.68 375.401 1200.37 249.459 1106.94C123.518 1013.51 38.1294 877.727 10.0816 726.276C-17.9661 574.824 13.3556 418.665 97.8889 288.497C182.422 158.33 314.052 63.5706 466.901 22.8488C619.749 -17.873 782.76 -1.61157 923.885 68.4362C1065.01 138.484 1174.04 257.251 1229.54 401.388C1230.93 405.007 1232.28 408.626 1233.59 412.281V412.315C1239.45 428.379 1244.61 444.741 1249.07 461.403C1262.84 512.671 1269.78 565.44 1269.74 618.421V618.421Z" fill="#3F3D56"/>
<path d="M568.072 197.061C539.35 181.982 507.461 173.47 474.836 172.174C442.211 170.878 409.712 176.833 379.817 189.584C353.496 200.705 325.781 220.655 317 256.681C352.513 236.334 398.484 268.483 407.622 320.057L405.489 320.628C400.662 356.35 411.437 395.242 432.297 417.392C433.848 407.397 437.673 397.864 443.493 389.483C449.313 381.103 456.983 374.087 465.945 368.943C481.271 359.162 498.227 352.056 509.925 335.243C523.794 315.31 527.315 286.179 532.825 259.604C538.334 233.029 548.786 204.466 568.072 197.061Z" fill="#FF6464"/>
<path d="M361.907 503.768C352.072 518.109 338.935 527.106 327.147 538.309C313.538 550.327 304.611 566.53 301.867 584.191C300.375 596.669 302.683 609.355 302.363 621.972C302.044 634.588 297.712 648.79 288.871 651.927C274.917 656.822 264.265 631.658 249.921 629.9C238.523 628.521 228.262 645.929 231.564 661.028C234.866 676.126 250.382 682.814 259.294 672.955C267.354 686.088 261.673 709.909 249.565 713.941C248.287 722.215 247.009 730.453 245.766 738.726C215.159 717.94 184.234 696.809 158.208 666.37C129.262 632.805 111.308 591.607 106.652 548.064C103.279 513.076 108.285 473.054 91.74 446.132C78.4955 424.587 55.7713 419.83 35.3196 421.175C31.5916 421.416 27.8283 421.829 24.0996 422.277C36.1607 387.108 51.4791 353.072 69.8669 320.586C74.0281 318.852 77.8948 316.516 81.3352 313.657C100.367 297.973 108.818 266.224 124.262 244.266C125.257 242.852 126.287 241.474 127.351 240.129C143.152 220.101 164.314 209.794 184.765 200.211C230.036 178.873 276.62 157.26 324.412 160.224L310.813 161.499C294.942 204.658 279.059 247.816 263.163 290.975C260.749 297.593 258.311 304.223 255.849 310.865C246.83 335.409 237.528 361.538 238.913 389.012C239.73 405.282 245.552 422.657 256.63 428.241C266.963 433.412 278.254 427.069 288.231 420.795C292.456 418.175 296.646 415.555 300.871 412.901C316.032 403.421 332.827 393.7 348.84 400.042C363.504 405.833 374.333 425.173 376.393 446.028C378.282 466.301 373.187 486.609 361.907 503.768Z" fill="#FF6464"/>
<path d="M452.08 798.421C407.799 771.952 363.519 745.483 319.239 719.014L319.991 717.135C292.46 727.315 281.029 774.827 285.579 813.682C290.129 852.537 305.557 887.27 313.351 925.129C323.86 976.938 319.894 1030.53 301.863 1080.35C360.089 1016.92 411.618 947.988 455.677 874.578C461.832 865.326 466.523 855.23 469.591 844.627C472.841 833.326 471.683 821.259 466.338 810.737C462.713 805.545 457.813 801.312 452.08 798.421V798.421Z" fill="#FF6464"/>
<path d="M277.322 316.87C272.122 327.709 271.321 340.052 275.078 351.439C279.447 360.613 287.373 367.74 297.129 371.267L321.596 383.042C329.735 386.959 338.509 390.915 346.806 387.692C356.814 383.805 363.753 368.572 361.958 354.431C360.048 339.382 350.278 329.031 341.241 320.216C328.596 307.881 315.951 295.545 303.305 283.209L296.179 291.684C288.471 298.983 282.095 307.499 277.322 316.87V316.87Z" fill="#FF6464"/>
<path d="M1138.58 477.743C1149.58 480.259 1160.59 482.775 1171.6 485.292C1169.68 521.384 1151.25 554.787 1126.54 566.886C1116.24 571.919 1104.77 573.78 1096.25 583.191C1088.55 591.74 1084.64 605.046 1081.05 617.766C1074.77 639.966 1068.49 662.165 1062.2 684.365C1055.46 708.288 1046.79 734.866 1029.25 743.484C1014.2 750.895 996.976 741.829 985.401 726.627C973.826 711.426 966.76 690.984 959.907 671.06C960.333 692.777 949.93 714.08 935.195 721.629C920.424 729.178 902.458 722.353 892.587 705.497C885.486 693.397 882.539 677.436 875.579 665.165C868.62 652.893 854.027 645.861 846.429 657.374C841.422 665.027 842.061 676.747 839.576 686.468C838.325 692.922 835.033 698.837 830.158 703.39C825.284 707.943 819.069 710.909 812.378 711.874C806.226 711.737 800.166 710.386 794.569 707.903C788.971 705.419 783.953 701.856 779.819 697.43C758.076 675.837 743.92 648.122 739.377 618.249C736.297 603.926 736.686 589.104 740.513 574.953C744.88 561.544 755.425 551.203 765.9 553.753C772.788 539.619 759.19 520.867 746.94 522.522C734.654 524.176 725.032 536.965 714.949 546.789C704.9 556.614 690.84 563.749 680.72 553.994C680.947 557.562 679.704 561.071 677.265 563.75C674.826 566.428 671.391 568.057 667.715 568.276C667.352 568.298 666.988 568.306 666.624 568.3C659.896 566.425 653.644 563.208 648.267 558.855C625.082 544.824 595.647 554.132 579.172 580.675C589.469 538.137 604.559 489.325 636.195 479.328C649.12 475.226 663.215 478.604 675.43 471.503C697.053 458.921 701.421 411.384 682.744 391.771C685.123 410.316 684.662 431.964 674.578 444.65C664.494 457.336 643.332 449.062 644.61 430.31C644.323 432.947 643.184 435.429 641.355 437.399C639.527 439.369 637.103 440.727 634.43 441.278C631.758 441.829 628.975 441.545 626.479 440.466C623.984 439.388 621.904 437.57 620.537 435.274C613.827 425.346 614.395 409.11 619.153 397.252C624.058 386.512 631.091 376.813 639.853 368.709C656.718 351.164 673.832 333.411 693.361 322.379C712.925 311.349 735.507 307.626 755.107 318.588C765.44 324.379 774.529 334.031 785.074 339.133C787.552 340.625 790.309 341.63 793.187 342.088C796.064 342.547 799.007 342.451 801.847 341.805C804.686 341.159 807.367 339.977 809.736 338.326C812.105 336.674 814.115 334.586 815.653 332.18L815.653 332.18C815.772 331.994 815.888 331.807 816.001 331.618C823.847 318.242 820.155 298.387 823.066 281.668C828.286 252.127 858.714 238.303 875.58 257.814C862.976 254.677 849.944 269.155 848.382 286.702C846.785 304.247 855.91 321.966 868.124 327.274C888.647 336.099 908.743 313.899 924.26 293.354C940.45 271.844 956.665 250.345 972.904 228.858C975.496 225.2 978.406 221.763 981.602 218.586C986.688 213.773 993.468 211.017 1000.57 210.876C1007.67 210.736 1014.56 213.22 1019.84 217.828C1036.25 230.823 1043.95 257.47 1057.41 275.808C1076.94 302.455 1106.16 308.936 1133.36 314.106C1153.63 317.933 1173.92 321.782 1194.21 325.654C1207.75 350.092 1219.55 375.396 1229.54 401.389C1192.32 417.867 1160.75 444.366 1138.58 477.743V477.743Z" fill="#FF6464"/>
<path d="M1204.12 892.505C1188.91 922.493 1171.22 951.233 1151.22 978.442C1138.43 973.134 1124.69 982.613 1112.73 991.507C1100.23 1000.81 1085.21 1009.88 1072.39 1001.4C1059.29 992.714 1055.06 968.412 1059.22 949.142C1063.99 931.366 1072.34 914.683 1083.79 900.054C1094.44 884.611 1105.84 868.581 1120.64 862.583C1135.49 856.585 1154.55 865.065 1158.89 885.542L1169.4 885.197C1163.5 877.337 1166.59 861.067 1174.51 858.205C1183.63 854.862 1191.55 867.03 1196.95 877.786C1199.36 882.646 1201.81 887.541 1204.12 892.505Z" fill="#FF6464"/>
<path d="M801.599 746.899C779.009 748.278 761.115 721.279 749.224 694.718C737.333 668.156 726.484 637.781 706.101 624.262C694.454 616.536 681.175 615.477 668.542 611.733C661.377 609.976 654.746 606.586 649.2 601.845C643.653 597.104 639.35 591.147 636.647 584.47L622.317 578.85C602.272 588.577 583.915 601.285 567.91 616.513C549.62 635.375 538.228 659.554 535.49 685.322C532.753 713.17 542.861 744.221 561.749 754.682C576.673 762.948 594.049 757.738 609.166 765.305C628.054 774.759 639.267 802.223 643.512 829.34C647.756 856.457 646.681 884.638 649.717 912.062C652.754 939.487 661.124 968.023 678.445 982.078C700.12 999.665 731.926 985.051 741.651 953.036C746.421 937.332 746.257 919.612 749.825 903.311C756.107 874.604 773.062 853.306 786.509 829.758C799.956 806.21 810.543 774.228 801.599 746.899Z" fill="#FF6464"/>
<path d="M578.373 464.813C580.48 466.696 582.445 468.722 584.255 470.876C586.129 474.012 587.085 477.585 587.022 481.21C586.958 484.835 585.877 488.374 583.894 491.446C586.616 491.296 589.275 490.599 591.705 489.4C594.134 488.201 596.282 486.526 598.011 484.481C602.134 479.922 605.761 474.962 608.834 469.679C610.279 467.87 611.311 465.783 611.861 463.557C612.411 461.331 612.467 459.016 612.025 456.767C610.958 453.81 608.434 452.549 606.665 450.326C604.213 445.978 602.539 441.257 601.714 436.365C600.733 431.78 598.455 427.551 595.135 424.154C591.814 420.757 587.584 418.326 582.919 417.135L584.051 417.345C582.124 418.455 580.603 420.123 579.701 422.114C578.799 424.106 578.561 426.321 579.021 428.451C579.707 432.752 582.554 436.323 582.271 440.711C581.863 447.019 575.369 449.98 574.968 456.289C574.905 459.455 576.128 462.517 578.373 464.813V464.813Z" fill="#FF6464"/>
<path d="M539.668 357.606L539.769 357.587C540.464 356.972 541.108 356.305 541.697 355.593L539.668 357.606Z" fill="#6C63FF"/>
<path d="M546.443 387.218C549.157 384.907 551.164 381.916 552.245 378.572C553.327 375.229 553.441 371.661 552.576 368.258C550.935 361.085 545.127 356.262 539.769 357.587C538.215 359.117 536.286 360.238 534.162 360.844C532.039 361.451 529.792 361.524 527.632 361.056C524.32 360.228 520.684 358.096 517.811 360.519C516.167 362.328 515.017 364.509 514.466 366.861C513.402 370.03 512.339 373.199 511.275 376.367C510.771 377.501 510.639 378.759 510.898 379.969C511.102 380.454 511.431 380.88 511.853 381.206C512.275 381.532 512.776 381.746 513.309 381.83L532.448 387.307C534.644 388.29 537.037 388.791 539.456 388.776C541.874 388.761 544.26 388.229 546.443 387.218V387.218Z" fill="#FF6464"/>
<path d="M1028.06 796.048C1025.11 791.361 1022.16 786.673 1019.21 781.986C1016.31 776.558 1012.35 771.73 1007.55 767.775C1005.45 766.067 1002.74 765.239 1000.01 765.472C997.283 765.706 994.761 766.983 993.002 769.022L993.002 769.022L992.848 769.205L993.207 771.882C1001.1 780.101 1006.48 790.294 1008.75 801.317C1009.42 806.107 1009.18 811.065 1009.77 815.876C1009.84 818.107 1010.35 820.304 1011.29 822.342C1012.22 824.38 1013.57 826.218 1015.24 827.752C1019.88 830.763 1025.33 826.323 1028.64 820.904C1031.59 816.454 1032.92 811.167 1032.4 805.896C1031.66 802.359 1030.19 799.007 1028.06 796.048V796.048Z" fill="#FF6464"/>
<path d="M1074.32 802.148C1074.88 797.76 1074.51 793.306 1073.24 789.061C1073.03 783.316 1074.6 777.643 1077.74 772.774C1080.87 768.18 1083.23 763.141 1084.76 757.839C1085.4 755.423 1085.28 752.876 1084.42 750.526C1083.45 748.397 1081.08 747.426 1079.73 749.111L1082.63 750.926C1078.71 750.247 1074.68 750.437 1070.85 751.48C1068.66 752.293 1066.71 753.605 1065.16 755.305C1063.6 757.006 1062.49 759.044 1061.92 761.249C1061.45 764.687 1060.66 768.078 1059.58 771.385C1057.85 774.84 1054.5 775.989 1052.39 779.021C1050.96 781.71 1050.23 784.702 1050.29 787.73C1050.34 790.758 1051.16 793.726 1052.69 796.366C1055.34 800.685 1059.54 803.895 1064.49 805.372C1068.03 806.607 1072.7 806.672 1074.32 802.148Z" fill="#FF6464"/>
<path d="M1156.7 826.279C1157.98 829.517 1159.7 832.575 1161.81 835.375C1165.75 839.232 1171.11 836.862 1175.9 835.925C1180.24 835.259 1184.68 835.746 1188.76 837.335C1192.84 838.924 1196.4 841.555 1199.07 844.949C1197.21 835.964 1193.16 827.543 1187.26 820.393C1181.36 813.243 1173.77 807.573 1165.15 803.858C1153.93 800.091 1142.12 798.297 1130.26 798.562L1128.23 799.066C1133.39 813.656 1149.61 813.33 1156.7 826.279Z" fill="#FF6464"/>
<path d="M807.779 856.123L807.809 856.187L808.398 855.084L807.779 856.123Z" fill="#6C63FF"/>
<path d="M795.281 879.608C792.556 884.413 790.212 889.412 788.27 894.562C785.699 902.904 783.996 911.476 783.188 920.149C782.554 925.08 782.358 931.378 785.54 933.781C786.454 934.369 787.557 934.615 788.644 934.472C789.73 934.328 790.726 933.806 791.445 933.002C793.213 931.186 794.659 929.099 795.725 926.825C801.98 916.367 806.836 905.178 810.176 893.528C813.661 881.169 812.829 868.037 807.809 856.187C803.634 863.994 799.458 871.801 795.281 879.608Z" fill="#FF6464"/>
<path d="M674.714 253.895C676.699 255.779 679.209 257.058 681.934 257.574C684.658 258.09 687.479 257.821 690.048 256.8C695.368 254.542 700.249 251.412 704.476 247.548C707.977 245.033 710.946 241.888 713.223 238.285C714.477 236.131 715.281 233.758 715.588 231.302C715.895 228.846 715.699 226.355 715.012 223.973C714.035 221.69 712.474 219.688 710.477 218.154C708.48 216.62 706.113 215.606 703.6 215.208C696.519 213.169 689.438 211.131 682.356 209.092L687.479 204.61C682.208 201.864 676.378 206.96 673.084 213.27C670.972 217.39 669.499 221.791 668.714 226.329C667.594 231.071 667.55 235.994 668.586 240.754C669.622 245.514 671.713 249.998 674.714 253.895V253.895Z" fill="#FF6464"/>
<path d="M799.73 213.149C801.726 215.285 804.485 216.604 807.445 216.838C810.406 217.072 813.348 216.203 815.673 214.408C817.675 212.949 819.337 211.097 820.552 208.972C821.767 206.848 822.508 204.498 822.725 202.077C823.226 196.67 820.472 190.66 816.539 190.192L817.439 185.129C809.862 183.801 800.538 183.535 796.477 192.468C795.108 195.89 794.687 199.601 795.258 203.231C795.829 206.86 797.371 210.28 799.73 213.149V213.149Z" fill="#FF6464"/>
</svg>
