<svg width="2935" height="3384" viewBox="0 0 2935 3384" fill="none" xmlns="http://www.w3.org/2000/svg">
<g clip-path="url(#clip0_202_2)">
<path d="M2038.04 686.54C1834.58 652.443 1602.89 634.249 1361.6 634.249C1140.78 634.249 928.027 649.464 737.622 678.153C737.666 675.082 737.709 672.012 737.839 668.941C742.887 490.71 814.122 321.622 936.319 197.817C1058.52 74.012 1221.98 5.3126 1391.77 6.40192C1561.57 7.49124 1724.22 78.2829 1844.97 203.646C1965.71 329.01 2034.98 498.999 2037.95 677.282C2038 680.399 2038.04 683.469 2038.04 686.54Z" fill="#FF6464"/>
<g opacity="0.1">
<path d="M1473.11 6.14719C1382.8 -6.66234 1290.94 0.597732 1203.47 27.4568C1116.01 54.3159 1034.89 100.175 965.388 162.061C895.881 223.947 839.532 300.48 799.994 386.699C760.456 472.918 738.61 566.9 735.872 662.553C735.74 665.623 735.698 668.694 735.655 671.764C792.222 663.241 850.801 655.937 910.939 649.838C918.295 490.485 978.543 338.864 1081.23 221.286C1183.92 103.708 1322.56 27.5921 1473.11 6.14719V6.14719Z" fill="white"/>
</g>
<path d="M2322.49 740.71C2228.84 714.048 2133.84 692.873 2037.95 677.282C1880.78 651.706 1722.33 635.715 1563.4 629.391C1497.19 626.549 1429.77 625.083 1361.6 625.083C1307.57 625.083 1253.98 625.999 1201.13 627.832C1046.1 632.642 891.44 646.366 737.839 668.941C624.136 685.383 511.536 709.354 400.712 740.71C142.313 815.732 0 916.281 0 1023.8C0 1131.31 142.313 1231.86 400.712 1306.88C582.434 1359.68 806.486 1395.65 1050.62 1412.15C1151.38 1419.03 1255.55 1422.51 1361.6 1422.51C1468 1422.51 1572.52 1418.98 1673.59 1412.11C1895.77 1397.03 2101.32 1365.82 2273.35 1320.45C2274.27 1320.17 2275.14 1319.94 2276.06 1319.72C2287.67 1316.69 2299.1 1313.53 2310.4 1310.37C2314.46 1309.18 2318.48 1308.03 2322.49 1306.88C2322.72 1306.79 2322.95 1306.71 2323.19 1306.65C2327.03 1305.55 2330.83 1304.41 2334.62 1303.31C2342.22 1301.02 2349.72 1298.77 2357.1 1296.43C2357.45 1296.34 2357.75 1296.25 2358.06 1296.16C2364.47 1294.14 2370.76 1292.13 2377 1290.11C2382.1 1288.41 2387.17 1286.76 2392.19 1285.07C2395.85 1283.83 2399.48 1282.59 2403.05 1281.36C2405.67 1280.44 2408.25 1279.57 2410.78 1278.65C2414.23 1277.46 2417.67 1276.22 2421.08 1274.99C2422.52 1274.48 2423.96 1273.98 2425.35 1273.43C2428.63 1272.28 2431.81 1271.09 2435 1269.9C2438.45 1268.62 2441.89 1267.29 2445.3 1266C2448.13 1264.95 2450.97 1263.85 2453.76 1262.75C2456.12 1261.79 2458.43 1260.87 2460.79 1259.95C2467.2 1257.43 2473.49 1254.82 2479.69 1252.26C2482.79 1250.93 2485.88 1249.64 2488.94 1248.31C2491.95 1247.03 2495 1245.7 2497.97 1244.37C2502.86 1242.22 2507.66 1240.06 2512.37 1237.91C2514.64 1236.81 2516.96 1235.76 2519.18 1234.75C2520.88 1233.92 2522.54 1233.14 2524.24 1232.32C2525.47 1231.77 2526.69 1231.17 2527.87 1230.58C2532.27 1228.47 2536.64 1226.32 2540.91 1224.16C2557.32 1215.91 2572.64 1207.48 2586.87 1198.86C2676.11 1145.2 2723.2 1085.67 2723.2 1023.8C2723.2 916.281 2580.89 815.732 2322.49 740.71ZM2320.14 1298.08C2138.2 1350.93 1913.53 1386.9 1668.75 1403.26C1569.2 1409.91 1466.3 1413.34 1361.6 1413.34C1257.26 1413.34 1154.7 1409.95 1055.46 1403.31C810.284 1386.99 585.27 1351.02 403.068 1298.08C148.772 1224.21 8.72822 1126.82 8.72822 1023.8C8.74243 1014.69 9.82745 1005.63 11.9587 996.803C34.2139 903.862 171.116 816.878 403.068 749.509C513.055 718.397 624.792 694.565 737.622 678.153C892.147 655.45 1047.74 641.68 1203.71 636.907C1255.73 635.119 1308.36 634.233 1361.6 634.249C1428.85 634.249 1495.36 635.669 1560.74 638.419C1720.59 644.687 1879.97 660.754 2038.04 686.54C2133.1 702.061 2227.28 723.083 2320.14 749.509C2552.04 816.878 2688.9 903.816 2711.2 996.712C2713.37 1005.56 2714.47 1014.66 2714.48 1023.8C2714.48 1126.82 2574.43 1224.21 2320.14 1298.08V1298.08Z" fill="#3F3D56"/>
<path d="M2720.72 1027.97C2720.72 1089.2 2672.67 1147.12 2586.87 1198.86C2572.6 1207.48 2557.24 1215.91 2540.91 1224.16C2536.64 1226.32 2532.27 1228.47 2527.87 1230.58C2526.69 1231.17 2525.47 1231.77 2524.24 1232.32C2522.54 1233.14 2520.88 1233.92 2519.18 1234.75C2516.96 1235.76 2514.64 1236.81 2512.37 1237.91C2507.66 1240.06 2502.86 1242.22 2497.97 1244.37C2495 1245.7 2491.95 1247.03 2488.94 1248.31C2485.88 1249.64 2482.79 1250.93 2479.69 1252.25C2473.49 1254.82 2467.2 1257.43 2460.79 1259.95C2458.43 1260.87 2456.12 1261.79 2453.76 1262.75C2450.97 1263.85 2448.13 1264.95 2445.3 1266C2441.89 1267.29 2438.45 1268.62 2435 1269.9C2431.81 1271.09 2428.63 1272.28 2425.35 1273.43C2423.96 1273.98 2422.52 1274.48 2421.08 1274.99C2417.67 1276.22 2414.23 1277.46 2410.78 1278.65C2408.25 1279.57 2405.67 1280.44 2403.05 1281.36C2399.47 1282.59 2395.85 1283.83 2392.19 1285.07C2387.17 1286.76 2382.1 1288.41 2377 1290.11C2370.76 1292.13 2364.47 1294.14 2358.06 1296.16C2357.75 1296.25 2357.45 1296.34 2357.1 1296.43C2349.72 1298.77 2342.22 1301.02 2334.62 1303.31C2330.83 1304.41 2327.03 1305.55 2323.19 1306.65C2322.95 1306.71 2322.72 1306.79 2322.49 1306.88C2318.47 1308.03 2314.46 1309.17 2310.4 1310.37C2299.14 1313.48 2287.67 1316.64 2276.06 1319.72C2275.14 1319.94 2274.27 1320.17 2273.35 1320.45C2105.99 1364.35 1900.66 1396.34 1673.42 1411.79C1573.87 1418.52 1470.09 1422.1 1363.48 1422.1C1255.9 1422.1 1151.25 1418.48 1050.92 1411.6C451.99 1370.59 6.24121 1214.4 6.24121 1027.97C6.28837 1016.62 7.93495 1005.35 11.1274 994.512C11.3895 995.291 11.6516 996.024 11.9584 996.803C74.2322 1168.57 516.188 1307.39 1089.63 1341.26C1177.48 1346.48 1268.47 1349.18 1361.6 1349.18C1455.13 1349.18 1546.46 1346.43 1634.66 1341.21C2207.63 1307.2 2649.15 1168.34 2711.2 996.711C2712.25 993.961 2713.17 991.212 2713.95 988.462C2718.38 1001.12 2720.66 1014.49 2720.72 1027.97V1027.97Z" fill="#3F3D56"/>
<path d="M400.055 978.636C327.424 978.636 250.232 962.227 250.232 931.814C250.232 901.4 327.424 884.991 400.055 884.991C472.685 884.991 549.878 901.4 549.878 931.814C549.878 962.227 472.685 978.636 400.055 978.636ZM400.055 894.157C316.905 894.157 258.96 914.003 258.96 931.814C258.96 949.624 316.906 969.471 400.055 969.471C483.204 969.471 541.149 949.624 541.149 931.814C541.149 914.003 483.204 894.157 400.055 894.157V894.157Z" fill="#3F3D56"/>
<path d="M709.906 1194.03C637.276 1194.03 560.083 1177.62 560.083 1147.21C560.083 1116.8 637.276 1100.39 709.906 1100.39C782.537 1100.39 859.729 1116.8 859.729 1147.21C859.729 1177.62 782.537 1194.03 709.906 1194.03ZM709.906 1109.55C626.757 1109.55 568.812 1129.4 568.812 1147.21C568.812 1165.02 626.757 1184.87 709.906 1184.87C793.055 1184.87 851.001 1165.02 851.001 1147.21C851.001 1129.4 793.055 1109.55 709.906 1109.55V1109.55Z" fill="#3F3D56"/>
<path d="M2320.26 978.636C2247.63 978.636 2170.44 962.227 2170.44 931.814C2170.44 901.4 2247.63 884.991 2320.26 884.991C2392.89 884.991 2470.09 901.4 2470.09 931.814C2470.09 962.227 2392.89 978.636 2320.26 978.636ZM2320.26 894.157C2237.11 894.157 2179.17 914.003 2179.17 931.814C2179.17 949.624 2237.11 969.471 2320.26 969.471C2403.41 969.471 2461.36 949.624 2461.36 931.814C2461.36 914.003 2403.41 894.157 2320.26 894.157V894.157Z" fill="#3F3D56"/>
<path d="M2010.41 1194.03C1937.78 1194.03 1860.59 1177.62 1860.59 1147.21C1860.59 1116.8 1937.78 1100.39 2010.41 1100.39C2083.04 1100.39 2160.23 1116.8 2160.23 1147.21C2160.23 1177.62 2083.04 1194.03 2010.41 1194.03ZM2010.41 1109.55C1927.26 1109.55 1869.32 1129.4 1869.32 1147.21C1869.32 1165.02 1927.26 1184.87 2010.41 1184.87C2093.56 1184.87 2151.51 1165.02 2151.51 1147.21C2151.51 1129.4 2093.56 1109.55 2010.41 1109.55V1109.55Z" fill="#3F3D56"/>
<path d="M1360.16 1294.86C1287.53 1294.86 1210.34 1278.45 1210.34 1248.04C1210.34 1217.62 1287.53 1201.21 1360.16 1201.21C1432.79 1201.21 1509.98 1217.62 1509.98 1248.04C1509.98 1278.45 1432.79 1294.86 1360.16 1294.86ZM1360.16 1210.38C1277.01 1210.38 1219.06 1230.22 1219.06 1248.04C1219.06 1265.85 1277.01 1285.69 1360.16 1285.69C1443.31 1285.69 1501.25 1265.85 1501.25 1248.04C1501.25 1230.22 1443.31 1210.38 1360.16 1210.38V1210.38Z" fill="#3F3D56"/>
<path d="M1470.61 2258.08C1571.87 2258.08 1653.95 2171.88 1653.95 2065.54C1653.95 1959.2 1571.87 1873 1470.61 1873C1369.35 1873 1287.26 1959.2 1287.26 2065.54C1287.26 2171.88 1369.35 2258.08 1470.61 2258.08Z" fill="#2F2E41"/>
<path d="M1400.89 2192.04L1311.65 2238.97L1336.6 2291.27L1425.83 2244.34L1400.89 2192.04Z" fill="#2F2E41"/>
<path d="M1348.36 2285.96C1353.65 2277.53 1340.59 2258.69 1319.19 2243.87C1297.79 2229.05 1276.15 2223.87 1270.86 2232.3C1265.57 2240.73 1278.63 2259.57 1300.03 2274.39C1321.43 2289.21 1343.07 2294.39 1348.36 2285.96Z" fill="#2F2E41"/>
<path d="M1540.33 2192.04L1515.39 2244.34L1604.62 2291.27L1629.56 2238.97L1540.33 2192.04Z" fill="#2F2E41"/>
<path d="M1641.19 2274.39C1662.59 2259.57 1675.65 2240.72 1670.36 2232.3C1665.07 2223.87 1643.43 2229.05 1622.03 2243.87C1600.62 2258.69 1587.56 2277.53 1592.86 2285.96C1598.15 2294.39 1619.79 2289.21 1641.19 2274.39Z" fill="#2F2E41"/>
<path d="M1457.77 2084.25C1492.38 2084.25 1520.43 2054.79 1520.43 2018.44C1520.43 1982.1 1492.38 1952.64 1457.77 1952.64C1423.16 1952.64 1395.11 1982.1 1395.11 2018.44C1395.11 2054.79 1423.16 2084.25 1457.77 2084.25Z" fill="white"/>
<path d="M1473.01 2005.83C1481.14 1997.3 1481.09 1983.42 1472.91 1974.83C1464.73 1966.24 1451.51 1966.19 1443.39 1974.72C1435.27 1983.25 1435.31 1997.13 1443.49 2005.72C1451.67 2014.31 1464.89 2014.36 1473.01 2005.83Z" fill="#3F3D56"/>
<path d="M1615.24 1856.08C1618 1784.8 1559.5 1724.42 1484.58 1721.23C1409.66 1718.03 1346.69 1773.22 1343.93 1844.51C1341.17 1915.79 1393.25 1931.98 1468.17 1935.18C1543.09 1938.37 1612.48 1927.36 1615.24 1856.08Z" fill="#FF6464"/>
<path d="M1720.93 2166.36C1732.99 2155.49 1716.03 2113.97 1683.05 2073.63C1650.07 2033.29 1613.56 2009.4 1601.5 2020.27C1589.44 2031.14 1606.4 2072.66 1639.38 2113C1672.36 2153.34 1708.87 2177.23 1720.93 2166.36Z" fill="#2F2E41"/>
<path d="M1302.35 2113C1335.33 2072.66 1352.29 2031.14 1340.23 2020.27C1328.17 2009.4 1291.66 2033.29 1258.68 2073.63C1225.7 2113.97 1208.74 2155.49 1220.8 2166.36C1232.86 2177.23 1269.37 2153.34 1302.35 2113Z" fill="#2F2E41"/>
<path d="M1520.96 2141.42C1522.95 2152.87 1520.52 2164.67 1514.22 2174.24C1507.91 2183.81 1498.25 2190.35 1487.35 2192.44C1476.45 2194.52 1465.2 2191.97 1456.09 2185.35C1446.98 2178.73 1440.75 2168.58 1438.76 2157.13L1438.75 2157.05C1434.64 2133.21 1452.19 2124.77 1474.9 2120.45C1497.6 2116.14 1516.85 2117.58 1520.96 2141.42Z" fill="white"/>
<path d="M1160.85 2270.35C1158.54 2270.35 1156.32 2269.38 1154.68 2267.67C1153.04 2265.95 1152.12 2263.62 1152.12 2261.18V1720.4C1152.12 1717.97 1153.04 1715.64 1154.68 1713.92C1156.32 1712.2 1158.54 1711.23 1160.85 1711.23C1163.17 1711.23 1165.39 1712.2 1167.02 1713.92C1168.66 1715.64 1169.58 1717.97 1169.58 1720.4V2261.18C1169.58 2263.62 1168.66 2265.95 1167.02 2267.67C1165.39 2269.38 1163.17 2270.35 1160.85 2270.35Z" fill="#CCCCCC"/>
<path d="M1029.93 2756.14C1027.61 2756.14 1025.39 2755.17 1023.76 2753.46C1022.12 2751.74 1021.2 2749.41 1021.2 2746.97V2352.84C1021.2 2350.41 1022.12 2348.08 1023.76 2346.36C1025.39 2344.64 1027.61 2343.68 1029.93 2343.68C1032.24 2343.68 1034.46 2344.64 1036.1 2346.36C1037.74 2348.08 1038.66 2350.41 1038.66 2352.84V2746.97C1038.66 2749.41 1037.74 2751.74 1036.1 2753.46C1034.46 2755.17 1032.24 2756.14 1029.93 2756.14V2756.14Z" fill="#CCCCCC"/>
<path d="M1365.97 2430.75C1363.65 2430.75 1361.43 2429.79 1359.79 2428.07C1358.16 2426.35 1357.24 2424.02 1357.24 2421.59V1880.8C1357.24 1878.37 1358.16 1876.04 1359.79 1874.32C1361.43 1872.6 1363.65 1871.64 1365.97 1871.64C1368.28 1871.64 1370.5 1872.6 1372.14 1874.32C1373.77 1876.04 1374.69 1878.37 1374.69 1880.8V2421.59C1374.69 2424.02 1373.77 2426.35 1372.14 2428.07C1370.5 2429.79 1368.28 2430.75 1365.97 2430.75Z" fill="#CCCCCC"/>
<path d="M1239.41 2820.3C1237.09 2820.3 1234.87 2819.33 1233.24 2817.62C1231.6 2815.9 1230.68 2813.57 1230.68 2811.13V2591.15C1230.68 2588.72 1231.6 2586.39 1233.24 2584.67C1234.87 2582.95 1237.09 2581.99 1239.41 2581.99C1241.72 2581.99 1243.94 2582.95 1245.58 2584.67C1247.22 2586.39 1248.14 2588.72 1248.14 2591.15V2811.13C1248.14 2813.57 1247.22 2815.9 1245.58 2817.62C1243.94 2819.33 1241.72 2820.3 1239.41 2820.3V2820.3Z" fill="#CCCCCC"/>
<path d="M1418.34 1692.9C1416.02 1692.9 1413.8 1691.94 1412.16 1690.22C1410.53 1688.5 1409.61 1686.17 1409.61 1683.74V1463.76C1409.61 1461.33 1410.53 1458.99 1412.16 1457.28C1413.8 1455.56 1416.02 1454.59 1418.34 1454.59C1420.65 1454.59 1422.87 1455.56 1424.51 1457.28C1426.14 1458.99 1427.06 1461.33 1427.06 1463.76V1683.74C1427.06 1686.17 1426.14 1688.5 1424.51 1690.22C1422.87 1691.94 1420.65 1692.9 1418.34 1692.9V1692.9Z" fill="#CCCCCC"/>
<path d="M981.925 1789.14C979.61 1789.14 977.39 1788.18 975.753 1786.46C974.116 1784.74 973.196 1782.41 973.196 1779.98V1560C973.196 1557.57 974.116 1555.24 975.753 1553.52C977.39 1551.8 979.61 1550.83 981.925 1550.83C984.239 1550.83 986.459 1551.8 988.096 1553.52C989.733 1555.24 990.653 1557.57 990.653 1560V1779.98C990.653 1782.41 989.733 1784.74 988.096 1786.46C986.459 1788.18 984.239 1789.14 981.925 1789.14V1789.14Z" fill="#CCCCCC"/>
<path d="M1741.28 1812.06C1738.96 1812.06 1736.74 1811.09 1735.11 1809.37C1733.47 1807.66 1732.55 1805.32 1732.55 1802.89V1582.91C1732.55 1580.48 1733.47 1578.15 1735.11 1576.43C1736.74 1574.71 1738.96 1573.75 1741.28 1573.75C1743.59 1573.75 1745.81 1574.71 1747.45 1576.43C1749.09 1578.15 1750.01 1580.48 1750.01 1582.91V1802.89C1750.01 1805.32 1749.09 1807.66 1747.45 1809.37C1745.81 1811.09 1743.59 1812.06 1741.28 1812.06Z" fill="#CCCCCC"/>
<path d="M1723.82 2499.5C1721.51 2499.5 1719.29 2498.53 1717.65 2496.81C1716.01 2495.09 1715.09 2492.76 1715.09 2490.33V2224.52C1715.09 2222.09 1716.01 2219.76 1717.65 2218.04C1719.29 2216.32 1721.51 2215.36 1723.82 2215.36C1726.14 2215.36 1728.36 2216.32 1729.99 2218.04C1731.63 2219.76 1732.55 2222.09 1732.55 2224.52V2490.33C1732.55 2492.76 1731.63 2495.09 1729.99 2496.81C1728.36 2498.53 1726.14 2499.5 1723.82 2499.5Z" fill="#CCCCCC"/>
<path d="M1549.26 2733.23C1546.94 2733.23 1544.72 2732.26 1543.09 2730.54C1541.45 2728.82 1540.53 2726.49 1540.53 2724.06V2329.93C1540.53 2327.5 1541.45 2325.17 1543.09 2323.45C1544.72 2321.73 1546.94 2320.76 1549.26 2320.76C1551.57 2320.76 1553.79 2321.73 1555.43 2323.45C1557.07 2325.17 1557.99 2327.5 1557.99 2329.93V2724.06C1557.99 2726.49 1557.07 2728.82 1555.43 2730.54C1553.79 2732.26 1551.57 2733.23 1549.26 2733.23Z" fill="#CCCCCC"/>
<path d="M1584.17 2059.54C1581.86 2059.54 1579.64 2058.57 1578 2056.85C1576.36 2055.13 1575.44 2052.8 1575.44 2050.37V1509.59C1575.44 1507.16 1576.36 1504.82 1578 1503.1C1579.64 1501.39 1581.86 1500.42 1584.17 1500.42C1586.49 1500.42 1588.71 1501.39 1590.34 1503.1C1591.98 1504.82 1592.9 1507.16 1592.9 1509.59V2050.37C1592.9 2052.8 1591.98 2055.13 1590.34 2056.85C1588.71 2058.57 1586.49 2059.54 1584.17 2059.54Z" fill="#CCCCCC"/>
<path d="M2654.22 3210.29C2666.71 3199.31 2649.83 3156.53 2616.51 3114.74C2583.19 3072.95 2546.06 3047.98 2533.56 3058.96C2521.07 3069.94 2537.95 3112.73 2571.27 3154.52C2604.59 3196.31 2641.73 3221.28 2654.22 3210.29Z" fill="#2F2E41"/>
<path d="M2572.29 3162.77C2605.12 3059.36 2551.9 2947.58 2453.42 2913.11C2354.94 2878.64 2248.5 2934.53 2215.68 3037.94C2182.85 3141.35 2236.07 3253.13 2334.55 3287.6C2433.02 3322.07 2539.47 3266.18 2572.29 3162.77Z" fill="#2F2E41"/>
<path d="M2473.54 3255.26H2416.44V3362.69H2473.54V3255.26Z" fill="#2F2E41"/>
<path d="M2359.34 3255.26H2302.24V3362.69H2359.34V3255.26Z" fill="#2F2E41"/>
<path d="M2425.95 3382.68C2452.23 3382.68 2473.54 3374.29 2473.54 3363.94C2473.54 3353.59 2452.23 3345.2 2425.95 3345.2C2399.68 3345.2 2378.37 3353.59 2378.37 3363.94C2378.37 3374.29 2399.68 3382.68 2425.95 3382.68Z" fill="#2F2E41"/>
<path d="M2311.76 3380.18C2338.04 3380.18 2359.34 3371.79 2359.34 3361.44C2359.34 3351.09 2338.04 3342.7 2311.76 3342.7C2285.48 3342.7 2264.17 3351.09 2264.17 3361.44C2264.17 3371.79 2285.48 3380.18 2311.76 3380.18Z" fill="#2F2E41"/>
<path d="M2334.97 2852.25C2351.75 2781.28 2425.83 2739.51 2500.43 2758.96C2575.03 2778.41 2621.91 2851.72 2605.12 2922.7C2588.34 2993.67 2532.66 2993.9 2458.06 2974.45C2383.46 2954.99 2318.19 2923.23 2334.97 2852.25Z" fill="#CCCCCC"/>
<path d="M2267.2 3051.06C2274.18 3035.6 2241.83 3004.14 2194.93 2980.78C2148.04 2957.42 2104.36 2951.02 2097.38 2966.48C2090.4 2981.94 2122.75 3013.41 2169.65 3036.77C2216.54 3060.12 2260.22 3066.52 2267.2 3051.06Z" fill="#2F2E41"/>
<path d="M2365.89 3124.51C2400.49 3124.51 2428.55 3095.05 2428.55 3058.71C2428.55 3022.37 2400.49 2992.9 2365.89 2992.9C2331.28 2992.9 2303.22 3022.37 2303.22 3058.71C2303.22 3095.05 2331.28 3124.51 2365.89 3124.51Z" fill="white"/>
<path d="M2340.13 3057.06C2351.67 3057.06 2361.02 3047.24 2361.02 3035.12C2361.02 3023.01 2351.67 3013.19 2340.13 3013.19C2328.6 3013.19 2319.24 3023.01 2319.24 3035.12C2319.24 3047.24 2328.6 3057.06 2340.13 3057.06Z" fill="#3F3D56"/>
<path d="M2365.35 3223.6C2379.81 3223.6 2391.53 3211.29 2391.53 3196.1C2391.53 3180.91 2379.81 3168.6 2365.35 3168.6C2350.89 3168.6 2339.16 3180.91 2339.16 3196.1C2339.16 3211.29 2350.89 3223.6 2365.35 3223.6Z" fill="white"/>
<path d="M2930.64 3384H1900.71C1899.55 3384 1898.44 3383.52 1897.62 3382.66C1896.8 3381.8 1896.34 3380.63 1896.34 3379.42C1896.34 3378.2 1896.8 3377.04 1897.62 3376.18C1898.44 3375.32 1899.55 3374.83 1900.71 3374.83H2930.64C2931.79 3374.83 2932.9 3375.32 2933.72 3376.18C2934.54 3377.04 2935 3378.2 2935 3379.42C2935 3380.63 2934.54 3381.8 2933.72 3382.66C2932.9 3383.52 2931.79 3384 2930.64 3384Z" fill="#3F3D56"/>
</g>
<defs>
<clipPath id="clip0_202_2">
<rect width="2935" height="3384" fill="white"/>
</clipPath>
</defs>
</svg>
