<svg width="14" height="12" viewBox="0 0 14 12" fill="none" xmlns="http://www.w3.org/2000/svg">
<path d="M2.82353 3.65C3.27835 3.65 3.64706 3.28063 3.64706 2.825C3.64706 2.36937 3.27835 2 2.82353 2C2.36871 2 2 2.36937 2 2.825C2 3.28063 2.36871 3.65 2.82353 3.65Z" fill="#FF0000"/>
<path d="M6.5 8.49999C6.17245 7.78562 2.21283 7.0355 1 11L13.5 11V4C13.5 4 10.5 4.50001 8.5 5C6.5 5.49999 6.5 8.49999 6.5 8.49999Z" fill="#FF0000" stroke="#FF0000"/>
<path d="M12.7647 12H1.23529C0.907783 11.9995 0.593789 11.827 0.362204 11.5202C0.130619 11.2134 0.000357492 10.7975 0 10.3636V1.63636C0.000357492 1.20252 0.130619 0.786578 0.362204 0.479803C0.593789 0.173028 0.907783 0.000473561 1.23529 0H12.7647C13.0922 0.000473561 13.4062 0.173028 13.6378 0.479803C13.8694 0.786578 13.9996 1.20252 14 1.63636V10.3636C13.9996 10.7975 13.8694 11.2134 13.6378 11.5202C13.4062 11.827 13.0922 11.9995 12.7647 12V12ZM1.23529 1.09091C1.12612 1.09105 1.02145 1.14857 0.944252 1.25083C0.867054 1.35309 0.823638 1.49174 0.823529 1.63636V10.3636C0.823638 10.5083 0.867054 10.6469 0.944252 10.7492C1.02145 10.8514 1.12612 10.9089 1.23529 10.9091H12.7647C12.8739 10.9089 12.9786 10.8514 13.0557 10.7492C13.1329 10.6469 13.1764 10.5083 13.1765 10.3636V1.63636C13.1764 1.49174 13.1329 1.35309 13.0557 1.25083C12.9786 1.14857 12.8739 1.09105 12.7647 1.09091H1.23529Z" fill="#FF0000"/>
</svg>
